<mxfile host="app.diagrams.net" modified="2022-09-14T08:01:37.201Z" agent="5.0 (Windows NT 10.0; Win64; x64) AppleWebKit/537.36 (KHTML, like Gecko) Chrome/105.0.0.0 Safari/537.36" etag="uAFCjRepfP1W-8nTqVhC" version="20.3.0" type="github">
  <diagram id="SA-B6IlImtzoIdA184Yv" name="Page-1">
    <mxGraphModel dx="1038" dy="571" grid="1" gridSize="10" guides="1" tooltips="1" connect="1" arrows="1" fold="1" page="1" pageScale="1" pageWidth="827" pageHeight="1169" math="0" shadow="0">
      <root>
        <mxCell id="0" />
        <mxCell id="1" parent="0" />
        <mxCell id="NAn7uY94Z5yHejh6RC4G-2" value="Start" style="rounded=1;whiteSpace=wrap;html=1;fontSize=30;" vertex="1" parent="1">
          <mxGeometry x="40" y="40" width="120" height="80" as="geometry" />
        </mxCell>
        <mxCell id="NAn7uY94Z5yHejh6RC4G-3" value="" style="endArrow=classic;html=1;rounded=0;fontSize=30;exitX=1;exitY=0.5;exitDx=0;exitDy=0;entryX=0;entryY=0.5;entryDx=0;entryDy=0;" edge="1" parent="1" source="NAn7uY94Z5yHejh6RC4G-2" target="NAn7uY94Z5yHejh6RC4G-5">
          <mxGeometry width="50" height="50" relative="1" as="geometry">
            <mxPoint x="160" y="90" as="sourcePoint" />
            <mxPoint x="240" y="80" as="targetPoint" />
          </mxGeometry>
        </mxCell>
        <mxCell id="NAn7uY94Z5yHejh6RC4G-4" value="" style="edgeStyle=orthogonalEdgeStyle;rounded=0;orthogonalLoop=1;jettySize=auto;html=1;fontSize=30;" edge="1" parent="1" source="NAn7uY94Z5yHejh6RC4G-5" target="NAn7uY94Z5yHejh6RC4G-7">
          <mxGeometry relative="1" as="geometry" />
        </mxCell>
        <mxCell id="NAn7uY94Z5yHejh6RC4G-5" value="Wake Up" style="shape=parallelogram;perimeter=parallelogramPerimeter;whiteSpace=wrap;html=1;fixedSize=1;fontSize=30;" vertex="1" parent="1">
          <mxGeometry x="240" y="40" width="120" height="80" as="geometry" />
        </mxCell>
        <mxCell id="NAn7uY94Z5yHejh6RC4G-6" value="" style="edgeStyle=orthogonalEdgeStyle;rounded=0;orthogonalLoop=1;jettySize=auto;html=1;fontSize=30;" edge="1" parent="1" source="NAn7uY94Z5yHejh6RC4G-7" target="NAn7uY94Z5yHejh6RC4G-10">
          <mxGeometry relative="1" as="geometry" />
        </mxCell>
        <mxCell id="NAn7uY94Z5yHejh6RC4G-7" value="Get Ready" style="whiteSpace=wrap;html=1;fontSize=30;" vertex="1" parent="1">
          <mxGeometry x="440" y="40" width="120" height="80" as="geometry" />
        </mxCell>
        <mxCell id="NAn7uY94Z5yHejh6RC4G-8" value="" style="edgeStyle=orthogonalEdgeStyle;rounded=0;orthogonalLoop=1;jettySize=auto;html=1;fontSize=30;entryX=1;entryY=0.5;entryDx=0;entryDy=0;" edge="1" parent="1" source="NAn7uY94Z5yHejh6RC4G-10" target="NAn7uY94Z5yHejh6RC4G-13">
          <mxGeometry relative="1" as="geometry">
            <mxPoint x="360" y="240" as="targetPoint" />
          </mxGeometry>
        </mxCell>
        <mxCell id="NAn7uY94Z5yHejh6RC4G-9" value="" style="edgeStyle=orthogonalEdgeStyle;rounded=0;orthogonalLoop=1;jettySize=auto;html=1;fontSize=20;" edge="1" parent="1" source="NAn7uY94Z5yHejh6RC4G-10">
          <mxGeometry relative="1" as="geometry">
            <mxPoint x="500" y="360" as="targetPoint" />
          </mxGeometry>
        </mxCell>
        <mxCell id="NAn7uY94Z5yHejh6RC4G-10" value="Late?" style="rhombus;whiteSpace=wrap;html=1;fontSize=30;" vertex="1" parent="1">
          <mxGeometry x="440" y="200" width="120" height="80" as="geometry" />
        </mxCell>
        <mxCell id="NAn7uY94Z5yHejh6RC4G-11" value="&lt;font style=&quot;font-size: 20px;&quot;&gt;Yes&lt;/font&gt;" style="text;html=1;align=center;verticalAlign=middle;resizable=0;points=[];autosize=1;strokeColor=none;fillColor=none;fontSize=30;" vertex="1" parent="1">
          <mxGeometry x="370" y="200" width="60" height="50" as="geometry" />
        </mxCell>
        <mxCell id="NAn7uY94Z5yHejh6RC4G-12" value="" style="edgeStyle=orthogonalEdgeStyle;rounded=0;orthogonalLoop=1;jettySize=auto;html=1;fontSize=20;" edge="1" parent="1" source="NAn7uY94Z5yHejh6RC4G-13" target="NAn7uY94Z5yHejh6RC4G-18">
          <mxGeometry relative="1" as="geometry" />
        </mxCell>
        <mxCell id="NAn7uY94Z5yHejh6RC4G-13" value="Get In Car" style="shape=parallelogram;perimeter=parallelogramPerimeter;whiteSpace=wrap;html=1;fixedSize=1;fontSize=30;" vertex="1" parent="1">
          <mxGeometry x="240" y="200" width="120" height="80" as="geometry" />
        </mxCell>
        <mxCell id="NAn7uY94Z5yHejh6RC4G-14" value="Waiting" style="whiteSpace=wrap;html=1;fontSize=30;" vertex="1" parent="1">
          <mxGeometry x="40" y="200" width="120" height="80" as="geometry" />
        </mxCell>
        <mxCell id="NAn7uY94Z5yHejh6RC4G-15" value="" style="endArrow=classic;html=1;rounded=0;fontSize=20;exitX=1;exitY=0.5;exitDx=0;exitDy=0;entryX=0;entryY=0.5;entryDx=0;entryDy=0;" edge="1" parent="1" source="NAn7uY94Z5yHejh6RC4G-14" target="NAn7uY94Z5yHejh6RC4G-13">
          <mxGeometry width="50" height="50" relative="1" as="geometry">
            <mxPoint x="200" y="470" as="sourcePoint" />
            <mxPoint x="250" y="420" as="targetPoint" />
          </mxGeometry>
        </mxCell>
        <mxCell id="NAn7uY94Z5yHejh6RC4G-16" value="" style="edgeStyle=orthogonalEdgeStyle;rounded=0;orthogonalLoop=1;jettySize=auto;html=1;fontSize=20;entryX=0.5;entryY=1;entryDx=0;entryDy=0;" edge="1" parent="1" source="NAn7uY94Z5yHejh6RC4G-18" target="NAn7uY94Z5yHejh6RC4G-14">
          <mxGeometry relative="1" as="geometry">
            <mxPoint x="160" y="400" as="targetPoint" />
          </mxGeometry>
        </mxCell>
        <mxCell id="NAn7uY94Z5yHejh6RC4G-17" value="" style="edgeStyle=orthogonalEdgeStyle;rounded=0;orthogonalLoop=1;jettySize=auto;html=1;fontSize=20;" edge="1" parent="1" source="NAn7uY94Z5yHejh6RC4G-18" target="NAn7uY94Z5yHejh6RC4G-29">
          <mxGeometry relative="1" as="geometry" />
        </mxCell>
        <mxCell id="NAn7uY94Z5yHejh6RC4G-18" value="Arrive?" style="rhombus;whiteSpace=wrap;html=1;fontSize=30;" vertex="1" parent="1">
          <mxGeometry x="240" y="360" width="120" height="80" as="geometry" />
        </mxCell>
        <mxCell id="NAn7uY94Z5yHejh6RC4G-19" value="&lt;font style=&quot;font-size: 20px;&quot;&gt;No&lt;/font&gt;" style="text;html=1;align=center;verticalAlign=middle;resizable=0;points=[];autosize=1;strokeColor=none;fillColor=none;fontSize=30;" vertex="1" parent="1">
          <mxGeometry x="195" y="360" width="50" height="50" as="geometry" />
        </mxCell>
        <mxCell id="NAn7uY94Z5yHejh6RC4G-20" value="&lt;font style=&quot;font-size: 20px;&quot;&gt;No&lt;/font&gt;" style="text;html=1;align=center;verticalAlign=middle;resizable=0;points=[];autosize=1;strokeColor=none;fillColor=none;fontSize=30;" vertex="1" parent="1">
          <mxGeometry x="490" y="290" width="50" height="50" as="geometry" />
        </mxCell>
        <mxCell id="NAn7uY94Z5yHejh6RC4G-21" value="" style="edgeStyle=orthogonalEdgeStyle;rounded=0;orthogonalLoop=1;jettySize=auto;html=1;fontSize=20;" edge="1" parent="1" source="NAn7uY94Z5yHejh6RC4G-22" target="NAn7uY94Z5yHejh6RC4G-23">
          <mxGeometry relative="1" as="geometry" />
        </mxCell>
        <mxCell id="NAn7uY94Z5yHejh6RC4G-22" value="Play Games" style="whiteSpace=wrap;html=1;fontSize=30;" vertex="1" parent="1">
          <mxGeometry x="440" y="360" width="120" height="80" as="geometry" />
        </mxCell>
        <mxCell id="NAn7uY94Z5yHejh6RC4G-23" value="Time?" style="rhombus;whiteSpace=wrap;html=1;fontSize=30;" vertex="1" parent="1">
          <mxGeometry x="440" y="520" width="120" height="80" as="geometry" />
        </mxCell>
        <mxCell id="NAn7uY94Z5yHejh6RC4G-24" value="" style="endArrow=classic;html=1;rounded=0;fontSize=20;exitX=1;exitY=0.5;exitDx=0;exitDy=0;entryX=1;entryY=0.5;entryDx=0;entryDy=0;" edge="1" parent="1" source="NAn7uY94Z5yHejh6RC4G-23" target="NAn7uY94Z5yHejh6RC4G-22">
          <mxGeometry width="50" height="50" relative="1" as="geometry">
            <mxPoint x="390" y="400" as="sourcePoint" />
            <mxPoint x="440" y="350" as="targetPoint" />
            <Array as="points">
              <mxPoint x="600" y="560" />
              <mxPoint x="600" y="400" />
            </Array>
          </mxGeometry>
        </mxCell>
        <mxCell id="NAn7uY94Z5yHejh6RC4G-25" value="&lt;font style=&quot;font-size: 20px;&quot;&gt;No&lt;/font&gt;" style="text;html=1;align=center;verticalAlign=middle;resizable=0;points=[];autosize=1;strokeColor=none;fillColor=none;fontSize=30;" vertex="1" parent="1">
          <mxGeometry x="560" y="520" width="50" height="50" as="geometry" />
        </mxCell>
        <mxCell id="NAn7uY94Z5yHejh6RC4G-26" value="" style="endArrow=classic;html=1;rounded=0;fontSize=20;entryX=0.75;entryY=1;entryDx=0;entryDy=0;" edge="1" parent="1" target="NAn7uY94Z5yHejh6RC4G-13">
          <mxGeometry width="50" height="50" relative="1" as="geometry">
            <mxPoint x="440" y="560" as="sourcePoint" />
            <mxPoint x="380" y="300" as="targetPoint" />
            <Array as="points">
              <mxPoint x="400" y="560" />
              <mxPoint x="400" y="320" />
              <mxPoint x="330" y="320" />
            </Array>
          </mxGeometry>
        </mxCell>
        <mxCell id="NAn7uY94Z5yHejh6RC4G-27" value="&lt;font style=&quot;font-size: 20px;&quot;&gt;Yes&lt;/font&gt;" style="text;html=1;align=center;verticalAlign=middle;resizable=0;points=[];autosize=1;strokeColor=none;fillColor=none;fontSize=30;" vertex="1" parent="1">
          <mxGeometry x="394" y="520" width="60" height="50" as="geometry" />
        </mxCell>
        <mxCell id="NAn7uY94Z5yHejh6RC4G-28" value="" style="edgeStyle=orthogonalEdgeStyle;rounded=0;orthogonalLoop=1;jettySize=auto;html=1;fontSize=20;" edge="1" parent="1" source="NAn7uY94Z5yHejh6RC4G-29" target="NAn7uY94Z5yHejh6RC4G-33">
          <mxGeometry relative="1" as="geometry" />
        </mxCell>
        <mxCell id="NAn7uY94Z5yHejh6RC4G-29" value="Register At Desk" style="whiteSpace=wrap;html=1;fontSize=30;" vertex="1" parent="1">
          <mxGeometry x="240" y="520" width="120" height="80" as="geometry" />
        </mxCell>
        <mxCell id="NAn7uY94Z5yHejh6RC4G-30" value="&lt;font style=&quot;font-size: 20px;&quot;&gt;Yes&lt;/font&gt;" style="text;html=1;align=center;verticalAlign=middle;resizable=0;points=[];autosize=1;strokeColor=none;fillColor=none;fontSize=30;" vertex="1" parent="1">
          <mxGeometry x="290" y="460" width="60" height="50" as="geometry" />
        </mxCell>
        <mxCell id="NAn7uY94Z5yHejh6RC4G-31" value="" style="edgeStyle=orthogonalEdgeStyle;rounded=0;orthogonalLoop=1;jettySize=auto;html=1;fontSize=20;" edge="1" parent="1" source="NAn7uY94Z5yHejh6RC4G-33" target="NAn7uY94Z5yHejh6RC4G-34">
          <mxGeometry relative="1" as="geometry" />
        </mxCell>
        <mxCell id="NAn7uY94Z5yHejh6RC4G-32" value="" style="edgeStyle=orthogonalEdgeStyle;rounded=0;orthogonalLoop=1;jettySize=auto;html=1;fontSize=20;" edge="1" parent="1" source="NAn7uY94Z5yHejh6RC4G-33" target="NAn7uY94Z5yHejh6RC4G-38">
          <mxGeometry relative="1" as="geometry" />
        </mxCell>
        <mxCell id="NAn7uY94Z5yHejh6RC4G-33" value="Open?" style="rhombus;whiteSpace=wrap;html=1;fontSize=30;" vertex="1" parent="1">
          <mxGeometry x="240" y="680" width="120" height="80" as="geometry" />
        </mxCell>
        <mxCell id="NAn7uY94Z5yHejh6RC4G-34" value="Waiting" style="whiteSpace=wrap;html=1;fontSize=30;" vertex="1" parent="1">
          <mxGeometry x="50" y="520" width="120" height="80" as="geometry" />
        </mxCell>
        <mxCell id="NAn7uY94Z5yHejh6RC4G-35" value="&lt;font style=&quot;font-size: 20px;&quot;&gt;No&lt;/font&gt;" style="text;html=1;align=center;verticalAlign=middle;resizable=0;points=[];autosize=1;strokeColor=none;fillColor=none;fontSize=30;" vertex="1" parent="1">
          <mxGeometry x="195" y="680" width="50" height="50" as="geometry" />
        </mxCell>
        <mxCell id="NAn7uY94Z5yHejh6RC4G-36" value="" style="endArrow=classic;html=1;rounded=0;fontSize=20;exitX=0.75;exitY=1;exitDx=0;exitDy=0;entryX=0.5;entryY=0;entryDx=0;entryDy=0;" edge="1" parent="1" source="NAn7uY94Z5yHejh6RC4G-34" target="NAn7uY94Z5yHejh6RC4G-33">
          <mxGeometry width="50" height="50" relative="1" as="geometry">
            <mxPoint x="170" y="670" as="sourcePoint" />
            <mxPoint x="220" y="620" as="targetPoint" />
            <Array as="points">
              <mxPoint x="140" y="680" />
            </Array>
          </mxGeometry>
        </mxCell>
        <mxCell id="NAn7uY94Z5yHejh6RC4G-37" value="" style="edgeStyle=orthogonalEdgeStyle;rounded=0;orthogonalLoop=1;jettySize=auto;html=1;fontSize=20;" edge="1" parent="1" source="NAn7uY94Z5yHejh6RC4G-38" target="NAn7uY94Z5yHejh6RC4G-42">
          <mxGeometry relative="1" as="geometry" />
        </mxCell>
        <mxCell id="NAn7uY94Z5yHejh6RC4G-38" value="Go In Room" style="whiteSpace=wrap;html=1;fontSize=30;" vertex="1" parent="1">
          <mxGeometry x="440" y="680" width="120" height="80" as="geometry" />
        </mxCell>
        <mxCell id="NAn7uY94Z5yHejh6RC4G-39" value="&lt;font style=&quot;font-size: 20px;&quot;&gt;Yes&lt;/font&gt;" style="text;html=1;align=center;verticalAlign=middle;resizable=0;points=[];autosize=1;strokeColor=none;fillColor=none;fontSize=30;" vertex="1" parent="1">
          <mxGeometry x="360" y="680" width="60" height="50" as="geometry" />
        </mxCell>
        <mxCell id="NAn7uY94Z5yHejh6RC4G-40" value="" style="edgeStyle=orthogonalEdgeStyle;rounded=0;orthogonalLoop=1;jettySize=auto;html=1;fontSize=20;" edge="1" parent="1" source="NAn7uY94Z5yHejh6RC4G-42">
          <mxGeometry relative="1" as="geometry">
            <mxPoint x="700" y="840" as="targetPoint" />
          </mxGeometry>
        </mxCell>
        <mxCell id="NAn7uY94Z5yHejh6RC4G-41" value="" style="edgeStyle=orthogonalEdgeStyle;rounded=0;orthogonalLoop=1;jettySize=auto;html=1;fontSize=20;" edge="1" parent="1" source="NAn7uY94Z5yHejh6RC4G-42" target="NAn7uY94Z5yHejh6RC4G-45">
          <mxGeometry relative="1" as="geometry" />
        </mxCell>
        <mxCell id="NAn7uY94Z5yHejh6RC4G-42" value="Time?" style="rhombus;whiteSpace=wrap;html=1;fontSize=30;" vertex="1" parent="1">
          <mxGeometry x="640" y="680" width="120" height="80" as="geometry" />
        </mxCell>
        <mxCell id="NAn7uY94Z5yHejh6RC4G-43" value="&lt;font style=&quot;font-size: 20px;&quot;&gt;No&lt;/font&gt;" style="text;html=1;align=center;verticalAlign=middle;resizable=0;points=[];autosize=1;strokeColor=none;fillColor=none;fontSize=30;" vertex="1" parent="1">
          <mxGeometry x="690" y="760" width="50" height="50" as="geometry" />
        </mxCell>
        <mxCell id="NAn7uY94Z5yHejh6RC4G-44" value="" style="edgeStyle=orthogonalEdgeStyle;rounded=0;orthogonalLoop=1;jettySize=auto;html=1;fontSize=20;" edge="1" parent="1" source="NAn7uY94Z5yHejh6RC4G-45" target="NAn7uY94Z5yHejh6RC4G-49">
          <mxGeometry relative="1" as="geometry" />
        </mxCell>
        <mxCell id="NAn7uY94Z5yHejh6RC4G-45" value="Get Ready" style="whiteSpace=wrap;html=1;fontSize=30;" vertex="1" parent="1">
          <mxGeometry x="640" y="520" width="120" height="80" as="geometry" />
        </mxCell>
        <mxCell id="NAn7uY94Z5yHejh6RC4G-46" value="&lt;font style=&quot;font-size: 20px;&quot;&gt;Yes&lt;/font&gt;" style="text;html=1;align=center;verticalAlign=middle;resizable=0;points=[];autosize=1;strokeColor=none;fillColor=none;fontSize=30;" vertex="1" parent="1">
          <mxGeometry x="690" y="640" width="60" height="50" as="geometry" />
        </mxCell>
        <mxCell id="NAn7uY94Z5yHejh6RC4G-47" value="" style="endArrow=classic;html=1;rounded=0;fontSize=20;exitX=0;exitY=0.5;exitDx=0;exitDy=0;entryX=0;entryY=0.5;entryDx=0;entryDy=0;" edge="1" parent="1" target="NAn7uY94Z5yHejh6RC4G-42">
          <mxGeometry width="50" height="50" relative="1" as="geometry">
            <mxPoint x="640" y="880" as="sourcePoint" />
            <mxPoint x="440" y="880" as="targetPoint" />
            <Array as="points">
              <mxPoint x="600" y="880" />
              <mxPoint x="600" y="800" />
              <mxPoint x="640" y="800" />
            </Array>
          </mxGeometry>
        </mxCell>
        <mxCell id="NAn7uY94Z5yHejh6RC4G-48" value="" style="edgeStyle=orthogonalEdgeStyle;rounded=0;orthogonalLoop=1;jettySize=auto;html=1;fontSize=20;" edge="1" parent="1" source="NAn7uY94Z5yHejh6RC4G-49" target="NAn7uY94Z5yHejh6RC4G-51">
          <mxGeometry relative="1" as="geometry" />
        </mxCell>
        <mxCell id="NAn7uY94Z5yHejh6RC4G-49" value="Teacher?" style="rhombus;whiteSpace=wrap;html=1;fontSize=30;" vertex="1" parent="1">
          <mxGeometry x="640" y="360" width="120" height="80" as="geometry" />
        </mxCell>
        <mxCell id="NAn7uY94Z5yHejh6RC4G-50" value="" style="edgeStyle=orthogonalEdgeStyle;rounded=0;orthogonalLoop=1;jettySize=auto;html=1;fontSize=20;" edge="1" parent="1" source="NAn7uY94Z5yHejh6RC4G-51" target="NAn7uY94Z5yHejh6RC4G-52">
          <mxGeometry relative="1" as="geometry" />
        </mxCell>
        <mxCell id="NAn7uY94Z5yHejh6RC4G-51" value="Learn" style="whiteSpace=wrap;html=1;fontSize=30;" vertex="1" parent="1">
          <mxGeometry x="640" y="200" width="120" height="80" as="geometry" />
        </mxCell>
        <mxCell id="NAn7uY94Z5yHejh6RC4G-52" value="End" style="rounded=1;whiteSpace=wrap;html=1;fontSize=30;" vertex="1" parent="1">
          <mxGeometry x="640" y="40" width="120" height="80" as="geometry" />
        </mxCell>
        <mxCell id="NAn7uY94Z5yHejh6RC4G-53" value="" style="endArrow=classic;html=1;rounded=0;fontSize=20;exitX=1;exitY=0.5;exitDx=0;exitDy=0;entryX=1;entryY=0.5;entryDx=0;entryDy=0;" edge="1" parent="1" source="NAn7uY94Z5yHejh6RC4G-49">
          <mxGeometry width="50" height="50" relative="1" as="geometry">
            <mxPoint x="780" y="650" as="sourcePoint" />
            <mxPoint x="760" y="880" as="targetPoint" />
            <Array as="points">
              <mxPoint x="800" y="400" />
              <mxPoint x="800" y="880" />
            </Array>
          </mxGeometry>
        </mxCell>
        <mxCell id="NAn7uY94Z5yHejh6RC4G-54" value="&lt;font style=&quot;font-size: 20px;&quot;&gt;No&lt;/font&gt;" style="text;html=1;align=center;verticalAlign=middle;resizable=0;points=[];autosize=1;strokeColor=none;fillColor=none;fontSize=30;" vertex="1" parent="1">
          <mxGeometry x="750" y="380" width="50" height="50" as="geometry" />
        </mxCell>
        <mxCell id="NAn7uY94Z5yHejh6RC4G-55" value="&lt;font style=&quot;font-size: 20px;&quot;&gt;Yes&lt;/font&gt;" style="text;html=1;align=center;verticalAlign=middle;resizable=0;points=[];autosize=1;strokeColor=none;fillColor=none;fontSize=30;" vertex="1" parent="1">
          <mxGeometry x="690" y="320" width="60" height="50" as="geometry" />
        </mxCell>
        <mxCell id="NAn7uY94Z5yHejh6RC4G-56" value="Play Games" style="rounded=0;whiteSpace=wrap;html=1;fontSize=30;" vertex="1" parent="1">
          <mxGeometry x="640" y="840" width="120" height="80" as="geometry" />
        </mxCell>
        <mxCell id="NAn7uY94Z5yHejh6RC4G-57" value="" style="endArrow=none;html=1;rounded=0;strokeWidth=6;" edge="1" parent="1">
          <mxGeometry width="50" height="50" relative="1" as="geometry">
            <mxPoint x="40" y="800" as="sourcePoint" />
            <mxPoint x="800" y="960" as="targetPoint" />
            <Array as="points">
              <mxPoint x="580" y="800" />
              <mxPoint x="580" y="960" />
            </Array>
          </mxGeometry>
        </mxCell>
        <mxCell id="NAn7uY94Z5yHejh6RC4G-58" value="Start" style="rounded=1;whiteSpace=wrap;html=1;fontSize=30;" vertex="1" parent="1">
          <mxGeometry x="40" y="840" width="120" height="80" as="geometry" />
        </mxCell>
        <mxCell id="NAn7uY94Z5yHejh6RC4G-59" value="End" style="rounded=1;whiteSpace=wrap;html=1;fontSize=30;" vertex="1" parent="1">
          <mxGeometry x="640" y="980" width="120" height="80" as="geometry" />
        </mxCell>
        <mxCell id="NAn7uY94Z5yHejh6RC4G-60" value="" style="edgeStyle=orthogonalEdgeStyle;rounded=0;orthogonalLoop=1;jettySize=auto;html=1;fontSize=30;strokeWidth=1;" edge="1" parent="1" source="NAn7uY94Z5yHejh6RC4G-61" target="NAn7uY94Z5yHejh6RC4G-64">
          <mxGeometry relative="1" as="geometry" />
        </mxCell>
        <mxCell id="NAn7uY94Z5yHejh6RC4G-61" value="Doge" style="shape=parallelogram;perimeter=parallelogramPerimeter;whiteSpace=wrap;html=1;fixedSize=1;fontSize=30;" vertex="1" parent="1">
          <mxGeometry x="240" y="840" width="120" height="80" as="geometry" />
        </mxCell>
        <mxCell id="NAn7uY94Z5yHejh6RC4G-62" value="" style="endArrow=classic;html=1;rounded=0;fontSize=30;strokeWidth=1;exitX=1;exitY=0.5;exitDx=0;exitDy=0;entryX=0;entryY=0.5;entryDx=0;entryDy=0;" edge="1" parent="1" source="NAn7uY94Z5yHejh6RC4G-58" target="NAn7uY94Z5yHejh6RC4G-61">
          <mxGeometry width="50" height="50" relative="1" as="geometry">
            <mxPoint x="200" y="1000" as="sourcePoint" />
            <mxPoint x="250" y="950" as="targetPoint" />
          </mxGeometry>
        </mxCell>
        <mxCell id="NAn7uY94Z5yHejh6RC4G-63" value="" style="edgeStyle=orthogonalEdgeStyle;rounded=0;orthogonalLoop=1;jettySize=auto;html=1;fontSize=30;strokeWidth=1;" edge="1" parent="1" source="NAn7uY94Z5yHejh6RC4G-64" target="NAn7uY94Z5yHejh6RC4G-66">
          <mxGeometry relative="1" as="geometry" />
        </mxCell>
        <mxCell id="NAn7uY94Z5yHejh6RC4G-64" value="Buy?" style="rhombus;whiteSpace=wrap;html=1;fontSize=30;" vertex="1" parent="1">
          <mxGeometry x="240" y="980" width="120" height="80" as="geometry" />
        </mxCell>
        <mxCell id="NAn7uY94Z5yHejh6RC4G-65" value="" style="edgeStyle=orthogonalEdgeStyle;rounded=0;orthogonalLoop=1;jettySize=auto;html=1;fontSize=30;strokeWidth=1;" edge="1" parent="1" source="NAn7uY94Z5yHejh6RC4G-66" target="NAn7uY94Z5yHejh6RC4G-69">
          <mxGeometry relative="1" as="geometry" />
        </mxCell>
        <mxCell id="NAn7uY94Z5yHejh6RC4G-66" value="Much Sad" style="whiteSpace=wrap;html=1;fontSize=30;" vertex="1" parent="1">
          <mxGeometry x="440" y="980" width="120" height="80" as="geometry" />
        </mxCell>
        <mxCell id="NAn7uY94Z5yHejh6RC4G-67" value="&lt;font style=&quot;font-size: 20px;&quot;&gt;No&lt;/font&gt;" style="text;html=1;align=center;verticalAlign=middle;resizable=0;points=[];autosize=1;strokeColor=none;fillColor=none;fontSize=30;" vertex="1" parent="1">
          <mxGeometry x="370" y="980" width="50" height="50" as="geometry" />
        </mxCell>
        <mxCell id="NAn7uY94Z5yHejh6RC4G-68" value="" style="edgeStyle=orthogonalEdgeStyle;rounded=0;orthogonalLoop=1;jettySize=auto;html=1;fontSize=30;strokeWidth=1;" edge="1" parent="1" source="NAn7uY94Z5yHejh6RC4G-69" target="NAn7uY94Z5yHejh6RC4G-61">
          <mxGeometry relative="1" as="geometry" />
        </mxCell>
        <mxCell id="NAn7uY94Z5yHejh6RC4G-69" value="Plz Buy" style="whiteSpace=wrap;html=1;fontSize=30;" vertex="1" parent="1">
          <mxGeometry x="440" y="840" width="120" height="80" as="geometry" />
        </mxCell>
        <mxCell id="NAn7uY94Z5yHejh6RC4G-70" value="Wow" style="whiteSpace=wrap;html=1;fontSize=30;" vertex="1" parent="1">
          <mxGeometry x="40" y="980" width="120" height="80" as="geometry" />
        </mxCell>
        <mxCell id="NAn7uY94Z5yHejh6RC4G-71" value="&lt;font style=&quot;font-size: 20px;&quot;&gt;Yes&lt;/font&gt;" style="text;html=1;align=center;verticalAlign=middle;resizable=0;points=[];autosize=1;strokeColor=none;fillColor=none;fontSize=30;" vertex="1" parent="1">
          <mxGeometry x="185" y="980" width="60" height="50" as="geometry" />
        </mxCell>
        <mxCell id="NAn7uY94Z5yHejh6RC4G-72" value="" style="endArrow=classic;html=1;rounded=0;fontSize=30;strokeWidth=1;exitX=0.917;exitY=0.8;exitDx=0;exitDy=0;exitPerimeter=0;entryX=1;entryY=0.5;entryDx=0;entryDy=0;" edge="1" parent="1" source="NAn7uY94Z5yHejh6RC4G-71" target="NAn7uY94Z5yHejh6RC4G-70">
          <mxGeometry width="50" height="50" relative="1" as="geometry">
            <mxPoint x="200" y="1160" as="sourcePoint" />
            <mxPoint x="250" y="1110" as="targetPoint" />
          </mxGeometry>
        </mxCell>
        <mxCell id="NAn7uY94Z5yHejh6RC4G-73" value="" style="edgeStyle=orthogonalEdgeStyle;rounded=0;orthogonalLoop=1;jettySize=auto;html=1;fontSize=30;strokeWidth=1;" edge="1" parent="1" source="NAn7uY94Z5yHejh6RC4G-74" target="NAn7uY94Z5yHejh6RC4G-76">
          <mxGeometry relative="1" as="geometry" />
        </mxCell>
        <mxCell id="NAn7uY94Z5yHejh6RC4G-74" value="Such Delight" style="whiteSpace=wrap;html=1;fontSize=30;" vertex="1" parent="1">
          <mxGeometry x="200" y="1080" width="120" height="80" as="geometry" />
        </mxCell>
        <mxCell id="NAn7uY94Z5yHejh6RC4G-75" value="" style="endArrow=classic;html=1;rounded=0;fontSize=30;strokeWidth=1;exitX=0.5;exitY=1;exitDx=0;exitDy=0;entryX=0;entryY=0.5;entryDx=0;entryDy=0;" edge="1" parent="1" source="NAn7uY94Z5yHejh6RC4G-70" target="NAn7uY94Z5yHejh6RC4G-74">
          <mxGeometry width="50" height="50" relative="1" as="geometry">
            <mxPoint x="110" y="1150" as="sourcePoint" />
            <mxPoint x="160" y="1100" as="targetPoint" />
            <Array as="points">
              <mxPoint x="100" y="1120" />
            </Array>
          </mxGeometry>
        </mxCell>
        <mxCell id="NAn7uY94Z5yHejh6RC4G-76" value="Doge Amaze" style="whiteSpace=wrap;html=1;fontSize=30;" vertex="1" parent="1">
          <mxGeometry x="400" y="1080" width="120" height="80" as="geometry" />
        </mxCell>
        <mxCell id="NAn7uY94Z5yHejh6RC4G-77" value="" style="endArrow=classic;html=1;rounded=0;fontSize=30;strokeWidth=1;exitX=1;exitY=0.5;exitDx=0;exitDy=0;entryX=0.5;entryY=1;entryDx=0;entryDy=0;" edge="1" parent="1" source="NAn7uY94Z5yHejh6RC4G-76" target="NAn7uY94Z5yHejh6RC4G-59">
          <mxGeometry width="50" height="50" relative="1" as="geometry">
            <mxPoint x="720" y="1150" as="sourcePoint" />
            <mxPoint x="770" y="1100" as="targetPoint" />
            <Array as="points">
              <mxPoint x="700" y="1120" />
            </Array>
          </mxGeometry>
        </mxCell>
      </root>
    </mxGraphModel>
  </diagram>
</mxfile>
